<svg id="owl" enable-background="new 0 0 300 300" height="512" viewBox="0 0 300 300" width="512" xmlns="http://www.w3.org/2000/svg"><g><circle cx="190.001" cy="126" fill="#e7d1c4" r="74"/><circle cx="228.001" cy="240" fill="#4c241d" r="4"/><path d="m62.001 88c-7.719 0-14-6.281-14-14s6.281-14 14-14 14 6.281 14 14-6.281 14-14 14zm0-20c-3.309 0-6 2.691-6 6s2.691 6 6 6 6-2.691 6-6-2.692-6-6-6z" fill="#4c241d"/><path d="m240.001 51.511c-2.209 0-4-1.789-4-4v-5.66c0-2.211 1.791-4 4-4s4 1.789 4 4v5.66c0 2.211-1.791 4-4 4z" fill="#4c241d"/><path d="m240.001 74.148c-2.209 0-4-1.789-4-4v-5.66c0-2.211 1.791-4 4-4s4 1.789 4 4v5.66c0 2.211-1.791 4-4 4z" fill="#4c241d"/><g><path d="m176.001 97.756v-36.658c0-16.071-13.028-29.098-29.098-29.098h-9.803c-16.071 0-29.099 13.028-29.099 29.099v36.658c-4.735 2.488-8 7.395-8 13.115v61.201c0 6.193 3.95 11.45 9.623 13.935 8.484 3.717 14.404 12.199 14.377 22.06-.018 6.603 5.397 11.933 12 11.933h12c6.603 0 12.018-5.33 12-11.933-.027-9.862 5.894-18.343 14.377-22.06 5.673-2.485 9.622-7.742 9.622-13.935v-61.203c.001-5.719-3.264-10.626-7.999-13.114z" fill="#6b4f5b"/><path d="m148.001 224h-12c-4.297 0-8.332-1.676-11.363-4.715-3.002-3.008-4.648-6.996-4.637-11.23.021-7.969-4.682-15.188-11.982-18.383-7.414-3.25-12.018-9.996-12.018-17.602v-61.199c0-6.152 3.012-11.836 8-15.348v-34.426c0-18.25 14.848-33.098 33.098-33.098h9.805c18.25 0 33.098 14.848 33.098 33.098v34.426c4.988 3.512 8 9.195 8 15.348v61.199c0 7.605-4.604 14.352-12.016 17.602-7.303 3.195-12.006 10.414-11.984 18.383.012 4.234-1.635 8.223-4.637 11.23-3.032 3.039-7.067 4.715-11.364 4.715zm-10.903-188c-13.84 0-25.098 11.258-25.098 25.098v36.66c0 1.488-.824 2.852-2.141 3.543-3.615 1.895-5.859 5.562-5.859 9.57v61.199c0 4.383 2.77 8.32 7.23 10.273 10.217 4.477 16.801 14.578 16.77 25.734-.006 2.09.811 4.066 2.301 5.559 1.52 1.523 3.543 2.363 5.699 2.363h12c2.156 0 4.18-.84 5.699-2.363 1.49-1.492 2.307-3.469 2.301-5.559-.031-11.156 6.553-21.258 16.771-25.734 4.459-1.953 7.229-5.891 7.229-10.273v-61.199c0-4.008-2.244-7.676-5.859-9.57-1.316-.691-2.141-2.055-2.141-3.543v-36.66c0-13.84-11.258-25.098-25.098-25.098z" fill="#4c241d"/></g><path d="m231.513 60h-5.66c-2.209 0-4-1.789-4-4s1.791-4 4-4h5.66c2.209 0 4 1.789 4 4s-1.791 4-4 4z" fill="#4c241d"/><path d="m254.149 60h-5.66c-2.209 0-4-1.789-4-4s1.791-4 4-4h5.66c2.209 0 4 1.789 4 4s-1.791 4-4 4z" fill="#4c241d"/><g><path d="m80.001 268 6.199-96.801 30.855-13.714 74.946 6.515 14.101 45.173 61.899 6.827v-12l-42.958-10.997-17.042-49.003-88-12-41.934 7.214-22.066 12.786-24 116" fill="#bf7e68"/><path d="m32.005 272c-.268 0-.541-.027-.814-.082-2.164-.449-3.555-2.566-3.107-4.727l24-116c.232-1.117.928-2.082 1.912-2.652l22.066-12.785c.41-.238.859-.402 1.328-.48l41.934-7.215c.404-.074.814-.078 1.219-.023l88 12c1.492.203 2.742 1.23 3.236 2.652l16.338 46.973 40.877 10.465c1.77.453 3.008 2.047 3.008 3.875v12c0 1.137-.484 2.219-1.332 2.98-.846.758-1.986 1.105-3.107.996l-61.898-6.828c-1.578-.176-2.904-1.27-3.379-2.785l-13.303-42.609-71.244-6.195-27.699 12.312-6.045 94.383c-.141 2.207-1.998 3.883-4.248 3.738-2.205-.141-3.877-2.043-3.736-4.246l6.199-96.801c.096-1.488 1.008-2.797 2.367-3.402l30.855-13.715c.619-.273 1.305-.395 1.971-.328l74.945 6.516c1.617.141 2.988 1.242 3.473 2.793l13.322 42.676 54.859 6.051v-4.43l-39.949-10.227c-1.299-.332-2.346-1.293-2.785-2.562l-16.238-46.684-84.957-11.586-40.619 6.988-19.896 11.527-23.639 114.245c-.393 1.891-2.057 3.192-3.914 3.192z" fill="#4c241d"/></g><g fill="#4c241d"><path d="m70.063 183.316c-1.465 0-2.875-.805-3.578-2.203-.992-1.973-.197-4.379 1.777-5.371l16.141-8.117c1.973-.988 4.377-.195 5.371 1.777.992 1.973.197 4.379-1.777 5.371l-16.141 8.117c-.576.289-1.189.426-1.793.426z"/><path d="m193.155 168c-1.072 0-2.143-.43-2.93-1.277-1.504-1.617-1.412-4.148.207-5.652l5.43-5.047c1.617-1.5 4.148-1.41 5.652.207s1.412 4.148-.207 5.652l-5.43 5.047c-.769.714-1.745 1.07-2.722 1.07z"/><path d="m68.352 244.804c-.135 0-.271-.008-.408-.02-2.199-.227-3.799-2.188-3.574-4.387l.979-9.609c.223-2.195 2.188-3.773 4.383-3.574 2.199.227 3.799 2.188 3.574 4.387l-.979 9.609c-.209 2.059-1.947 3.594-3.975 3.594z"/><path d="m56.37 233.691c-.252 0-.51-.023-.768-.074-2.168-.422-3.584-2.52-3.162-4.688l2.662-13.691c.422-2.172 2.51-3.594 4.689-3.164 2.168.422 3.584 2.52 3.162 4.688l-2.662 13.691c-.37 1.914-2.044 3.238-3.921 3.238z"/><path d="m49.034 268.414c-.236 0-.477-.02-.717-.062-2.174-.395-3.617-2.477-3.223-4.652l4.309-23.758c.393-2.172 2.492-3.609 4.648-3.223 2.174.395 3.617 2.477 3.223 4.652l-4.309 23.758c-.349 1.929-2.034 3.285-3.931 3.285z"/><path d="m213.151 197.695c-2.104 0-3.865-1.641-3.99-3.77-.127-2.203 1.557-4.094 3.762-4.223l11.887-.691c2.236-.109 4.1 1.555 4.227 3.762.127 2.203-1.557 4.094-3.762 4.223l-11.887.691c-.081.004-.159.008-.237.008z"/><path d="m84.005 156c-1.293 0-2.561-.625-3.332-1.781l-5.871-8.805c-1.225-1.836-.729-4.32 1.109-5.547 1.836-1.223 4.318-.73 5.547 1.109l5.871 8.805c1.225 1.836.729 4.32-1.109 5.547-.682.453-1.454.672-2.215.672z"/></g><g><path d="m171.381 59.272c-13.046 0-24.218 7.74-29.38 18.838-5.162-11.098-16.334-18.838-29.38-18.838h-4.62v16.984c0 17.398 13.717 31.482 30.909 32.313v.157h1.562 3.058 1.562v-.157c17.192-.832 30.909-14.915 30.909-32.313v-16.984z" fill="#fff"/><path d="m145.093 112.726h-6.184c-.475 0-.932-.082-1.355-.234-18.908-1.508-33.553-17.203-33.553-36.234v-16.985c0-2.211 1.791-4 4-4h4.621c11.68 0 22.59 5.719 29.379 15.004 6.789-9.285 17.699-15.004 29.379-15.004h4.621c2.209 0 4 1.789 4 4v16.984c0 19.051-14.678 34.762-33.615 36.238-.407.149-.84.231-1.293.231zm-5.075-8h3.996c.283-.086.578-.137.885-.152 15.197-.734 27.102-13.172 27.102-28.316v-12.985h-.621c-10.975 0-21.084 6.484-25.752 16.523-.656 1.41-2.07 2.312-3.627 2.312s-2.971-.902-3.627-2.312c-4.668-10.039-14.777-16.523-25.752-16.523h-.621v12.984c0 15.145 11.904 27.582 27.102 28.316.316.016.622.067.915.153z" fill="#4c241d"/></g><g><path d="m112.001 132h20v12h-20z" fill="#b5a19c"/><path d="m132.001 148h-20c-2.209 0-4-1.789-4-4v-12c0-2.211 1.791-4 4-4h20c2.209 0 4 1.789 4 4v12c0 2.21-1.791 4-4 4zm-16-8h12v-4h-12z" fill="#4c241d"/></g><g><path d="m152.001 132h20v12h-20z" fill="#b5a19c"/><path d="m172.001 148h-20c-2.209 0-4-1.789-4-4v-12c0-2.211 1.791-4 4-4h20c2.209 0 4 1.789 4 4v12c0 2.21-1.791 4-4 4zm-16-8h12v-4h-12z" fill="#4c241d"/></g><g><ellipse cx="142.001" cy="104" fill="#ffce56" rx="6" ry="10.336"/><path d="m142.001 118.336c-.695 0-1.391-.18-2.012-.543-4.928-2.867-7.988-8.152-7.988-13.793s3.061-10.926 7.988-13.793c1.242-.727 2.781-.727 4.023 0 4.928 2.867 7.988 8.152 7.988 13.793s-3.061 10.926-7.988 13.793c-.621.363-1.316.543-2.011.543zm0-19.583c-1.279 1.434-2 3.273-2 5.246s.721 3.812 2 5.246c1.279-1.434 2-3.273 2-5.246s-.721-3.812-2-5.246z" fill="#4c241d"/></g><circle cx="160.001" cy="80" fill="#4c241d" r="4"/><circle cx="124.001" cy="80" fill="#4c241d" r="4"/></g></svg>