<svg xmlns="http://www.w3.org/2000/svg" viewBox="0 0 1440 320"><path fill="#4c241d" fill-opacity="1" d="M0,160L18.5,181.3C36.9,203,74,245,111,234.7C147.7,224,185,160,222,149.3C258.5,139,295,181,332,176C369.2,171,406,117,443,117.3C480,117,517,171,554,192C590.8,213,628,203,665,213.3C701.5,224,738,256,775,272C812.3,288,849,288,886,266.7C923.1,245,960,203,997,208C1033.8,213,1071,267,1108,288C1144.6,309,1182,299,1218,298.7C1255.4,299,1292,309,1329,309.3C1366.2,309,1403,299,1422,293.3L1440,288L1440,0L1421.5,0C1403.1,0,1366,0,1329,0C1292.3,0,1255,0,1218,0C1181.5,0,1145,0,1108,0C1070.8,0,1034,0,997,0C960,0,923,0,886,0C849.2,0,812,0,775,0C738.5,0,702,0,665,0C627.7,0,591,0,554,0C516.9,0,480,0,443,0C406.2,0,369,0,332,0C295.4,0,258,0,222,0C184.6,0,148,0,111,0C73.8,0,37,0,18,0L0,0Z"></path></svg>