<?xml version="1.0" standalone="no"?>
<!DOCTYPE svg PUBLIC "-//W3C//DTD SVG 20010904//EN"
 "http://www.w3.org/TR/2001/REC-SVG-20010904/DTD/svg10.dtd">
<svg version="1.0" xmlns="http://www.w3.org/2000/svg"
 width="50.000000pt" height="50.000000pt" viewBox="0 0 50.000000 50.000000"
 preserveAspectRatio="xMidYMid meet">

<g transform="translate(0.000000,50.000000) scale(0.100000,-0.100000)"
fill="#4c241d" stroke="none">
<path d="M276 448 c-42 -60 16 -158 94 -158 29 0 76 26 84 46 10 25 1 28 -28
9 -21 -14 -31 -15 -61 -5 -47 15 -69 50 -62 95 7 40 -5 45 -27 13z"/>
<path d="M181 423 c-59 -74 -26 -183 69 -234 70 -38 166 -14 204 50 24 42 14
50 -24 17 -84 -71 -243 14 -227 121 3 21 8 46 12 56 11 26 -11 20 -34 -10z"/>
<path d="M64 380 c-57 -86 -41 -194 40 -275 75 -74 166 -95 251 -56 55 25 130
111 97 111 -5 0 -17 -9 -27 -20 -19 -21 -73 -40 -115 -40 -88 0 -187 76 -210
160 -12 44 -10 107 5 143 14 33 -14 17 -41 -23z"/>
</g>
</svg>
