<?xml version="1.0" standalone="no"?>
<!DOCTYPE svg PUBLIC "-//W3C//DTD SVG 20010904//EN"
 "http://www.w3.org/TR/2001/REC-SVG-20010904/DTD/svg10.dtd">
<svg version="1.0" xmlns="http://www.w3.org/2000/svg"
 width="50.000000pt" height="50.000000pt" viewBox="0 0 50.000000 50.000000"
 preserveAspectRatio="xMidYMid meet">

<g transform="translate(0.000000,50.000000) scale(0.100000,-0.100000)"
fill="#4c241d" stroke="none">
<path d="M228 469 c-6 -4 -33 -5 -59 -2 -67 8 -96 -2 -115 -39 -19 -36 -15
-98 11 -185 19 -65 58 -114 76 -96 9 9 17 8 35 -3 13 -9 32 -13 42 -10 17 6
20 0 24 -39 6 -53 22 -75 54 -75 37 0 62 33 70 90 6 46 9 50 33 50 30 0 51 16
51 38 0 10 -7 12 -25 8 -30 -8 -30 -9 -5 46 11 25 25 68 31 97 12 59 0 90 -49
115 -28 14 -152 18 -174 5z m62 -19 c12 0 80 -60 80 -69 0 -4 -11 -13 -25 -19
-30 -14 -31 -35 -5 -97 18 -41 19 -54 9 -123 -6 -50 -16 -81 -27 -89 -41 -32
-62 -2 -62 87 0 44 -4 62 -14 66 -11 4 -13 12 -5 31 24 65 -3 143 -45 127 -11
-4 -16 -1 -16 13 0 40 55 88 88 77 8 -2 18 -4 22 -4z m119 -16 c35 -29 37 -41
16 -112 -19 -61 -41 -61 -31 0 7 43 -3 68 -42 111 l-26 27 26 0 c15 0 40 -12
57 -26z m-232 2 c-26 -68 -32 -151 -15 -199 9 -22 7 -31 -7 -47 -10 -11 -24
-20 -31 -20 -16 0 -53 110 -61 181 -5 49 -3 59 16 78 25 25 107 31 98 7z m53
-140 c0 -69 -27 -100 -49 -57 -14 25 -7 91 10 102 20 12 39 -9 39 -45z m145 4
c0 -27 -3 -50 -6 -50 -10 0 -32 77 -25 89 17 27 31 9 31 -39z m-165 -109 c0
-5 -7 -12 -16 -15 -24 -9 -28 -7 -14 9 14 17 30 20 30 6z m30 -11 c0 -5 -10
-15 -22 -21 -23 -12 -23 -12 -4 10 21 23 26 26 26 11z m157 4 c-3 -3 -12 -4
-19 -1 -8 3 -5 6 6 6 11 1 17 -2 13 -5z"/>
</g>
</svg>
