<?xml version="1.0" standalone="no"?>
<!DOCTYPE svg PUBLIC "-//W3C//DTD SVG 20010904//EN"
 "http://www.w3.org/TR/2001/REC-SVG-20010904/DTD/svg10.dtd">
<svg version="1.0" xmlns="http://www.w3.org/2000/svg"
 width="50.000000pt" height="50.000000pt" viewBox="0 0 50.000000 50.000000"
 preserveAspectRatio="xMidYMid meet">

<g transform="translate(0.000000,50.000000) scale(0.100000,-0.100000)"
fill="#4c241d" stroke="none">
<path d="M220 450 c0 -14 -71 -42 -88 -35 -20 8 -53 -25 -47 -45 6 -20 -21
-90 -35 -90 -6 0 -10 -13 -10 -30 0 -16 4 -30 10 -30 14 0 42 -71 35 -88 -8
-20 25 -53 45 -47 20 6 90 -21 90 -35 0 -6 14 -10 30 -10 17 0 30 4 30 10 0
14 70 41 90 35 20 -6 53 27 45 47 -7 17 21 88 35 88 6 0 10 14 10 30 0 17 -4
30 -10 30 -14 0 -42 71 -35 88 8 20 -25 53 -45 47 -20 -6 -90 21 -90 35 0 6
-13 10 -30 10 -16 0 -30 -4 -30 -10z m56 -14 c5 -12 55 -32 99 -38 11 -2 21
-12 23 -23 6 -44 26 -94 38 -99 8 -3 14 -15 14 -26 0 -11 -6 -23 -14 -26 -12
-5 -32 -55 -38 -99 -2 -11 -12 -21 -23 -23 -44 -6 -94 -26 -99 -38 -3 -8 -15
-14 -26 -14 -11 0 -23 6 -26 14 -5 12 -55 32 -99 38 -11 2 -21 12 -23 23 -6
44 -26 94 -38 99 -18 7 -18 45 0 52 12 5 32 55 38 99 2 11 12 21 23 23 44 6
94 26 99 38 3 8 15 14 26 14 11 0 23 -6 26 -14z"/>
<path d="M171 277 c-12 -30 -25 -90 -15 -69 3 6 14 12 24 12 10 0 21 -6 24
-12 8 -18 -5 53 -14 77 -7 18 -9 18 -19 -8z m19 -27 c0 -5 -5 -10 -11 -10 -5
0 -7 5 -4 10 3 6 8 10 11 10 2 0 4 -4 4 -10z"/>
<path d="M231 248 c1 -29 3 -45 6 -35 2 9 10 17 18 17 20 0 37 27 30 50 -4 13
-15 20 -31 20 -23 0 -24 -3 -23 -52z m39 17 c0 -26 -14 -33 -25 -15 -9 14 1
40 15 40 5 0 10 -11 10 -25z"/>
<path d="M315 250 c0 -27 5 -50 10 -50 6 0 10 23 10 50 0 28 -4 50 -10 50 -5
0 -10 -22 -10 -50z"/>
</g>
</svg>
