<?xml version="1.0" standalone="no"?>
<!DOCTYPE svg PUBLIC "-//W3C//DTD SVG 20010904//EN"
 "http://www.w3.org/TR/2001/REC-SVG-20010904/DTD/svg10.dtd">
<svg version="1.0" xmlns="http://www.w3.org/2000/svg"
 width="50.000000pt" height="50.000000pt" viewBox="0 0 50.000000 50.000000"
 preserveAspectRatio="xMidYMid meet">

<g transform="translate(0.000000,50.000000) scale(0.100000,-0.100000)"
fill="#4c241d" stroke="none">
<path d="M290 476 c0 -2 10 -10 23 -18 20 -13 25 -13 52 4 l30 18 -52 0 c-29
0 -53 -2 -53 -4z"/>
<path d="M209 457 c-48 -22 -119 -89 -148 -139 -28 -48 -28 -51 -13 -89 9 -23
22 -39 31 -39 44 0 93 25 149 76 50 44 65 65 77 107 l16 52 -28 22 c-31 25
-46 27 -84 10z"/>
<path d="M388 452 c-16 -10 -28 -19 -28 -22 0 -9 98 -80 110 -80 18 0 11 66
-11 94 -23 30 -33 31 -71 8z"/>
<path d="M330 383 c-6 -15 -13 -34 -15 -40 -3 -10 14 -13 67 -13 79 0 79 -3
-9 59 l-33 22 -10 -28z"/>
<path d="M332 243 c12 -38 24 -72 28 -76 11 -13 100 110 100 138 0 3 -33 5
-74 5 l-74 0 20 -67z"/>
<path d="M236 247 l-49 -43 73 -28 c40 -14 74 -25 76 -23 5 5 -39 137 -46 137
-3 0 -27 -20 -54 -43z"/>
<path d="M418 193 l-47 -62 42 -35 42 -35 8 87 c4 48 6 92 5 97 -2 6 -24 -18
-50 -52z"/>
<path d="M20 178 c1 -50 1 -52 14 -29 10 18 11 32 4 53 -6 15 -12 28 -14 28
-2 0 -4 -24 -4 -52z"/>
<path d="M98 173 c-10 -2 -18 -10 -18 -16 0 -18 33 -107 40 -107 3 0 13 29 22
65 15 64 15 65 -6 64 -11 -1 -29 -3 -38 -6z"/>
<path d="M175 168 c-2 -7 -9 -33 -15 -58 -6 -25 -13 -53 -16 -62 -4 -13 0 -18
14 -18 25 0 135 55 156 79 17 18 15 20 -51 45 -78 30 -82 30 -88 14z"/>
<path d="M41 122 c-22 -42 -6 -78 42 -95 21 -8 21 -11 1 49 -21 62 -29 71 -43
46z"/>
<path d="M345 110 c-4 -6 -30 -27 -58 -46 l-52 -36 64 6 c35 3 82 6 103 6 45
0 43 6 -11 50 -24 18 -42 26 -46 20z"/>
</g>
</svg>
