<?xml version="1.0" standalone="no"?>
<!DOCTYPE svg PUBLIC "-//W3C//DTD SVG 20010904//EN"
 "http://www.w3.org/TR/2001/REC-SVG-20010904/DTD/svg10.dtd">
<svg version="1.0" xmlns="http://www.w3.org/2000/svg"
 width="50.000000pt" height="50.000000pt" viewBox="0 0 50.000000 50.000000"
 preserveAspectRatio="xMidYMid meet">

<g transform="translate(0.000000,50.000000) scale(0.100000,-0.100000)"
fill="#4c241d" stroke="none">
<path d="M265 473 c-36 -9 -163 -97 -180 -125 -10 -18 -16 -48 -15 -81 1 -28
-1 -70 -5 -92 -12 -79 53 -148 141 -148 34 0 57 9 118 49 89 58 108 86 106
157 -1 28 1 70 5 92 9 55 -19 103 -75 133 -44 22 -57 24 -95 15z m100 -33 c46
-28 55 -60 52 -173 -4 -114 -11 -124 -118 -188 -71 -42 -103 -47 -153 -24 -54
26 -66 58 -62 174 3 118 9 127 116 192 74 44 116 49 165 19z"/>
<path d="M221 395 c-82 -52 -101 -74 -101 -112 0 -72 80 -106 145 -63 36 24
45 25 45 5 0 -8 -26 -31 -57 -51 -56 -35 -57 -36 -72 -16 -9 11 -26 25 -38 31
-20 10 -23 9 -29 -13 -8 -35 20 -82 58 -95 28 -10 39 -8 86 16 82 42 125 83
125 121 0 37 -32 77 -70 87 -16 4 -39 -1 -64 -15 -77 -40 -82 -16 -7 35 56 37
78 43 78 22 0 -13 40 -37 60 -37 23 0 9 62 -19 91 -39 38 -73 37 -140 -6z
m131 -2 c40 -47 25 -78 -18 -38 -15 14 -30 24 -33 23 -37 -17 -122 -76 -126
-87 -3 -8 1 -22 10 -30 14 -15 19 -14 55 7 50 28 81 28 109 -2 40 -42 26 -74
-53 -128 -38 -27 -81 -48 -95 -48 -29 0 -71 36 -71 62 0 24 16 23 37 -2 24
-28 38 -25 105 18 88 56 73 108 -18 62 -39 -19 -49 -20 -74 -10 -36 15 -56 60
-40 90 17 32 130 100 166 100 17 0 38 -8 46 -17z"/>
<path d="M165 460 c3 -5 11 -10 16 -10 6 0 7 5 4 10 -3 6 -11 10 -16 10 -6 0
-7 -4 -4 -10z"/>
<path d="M135 440 c3 -5 8 -10 11 -10 2 0 4 5 4 10 0 6 -5 10 -11 10 -5 0 -7
-4 -4 -10z"/>
<path d="M100 420 c0 -5 5 -10 11 -10 5 0 7 5 4 10 -3 6 -8 10 -11 10 -2 0 -4
-4 -4 -10z"/>
<path d="M65 400 c3 -5 11 -10 16 -10 6 0 7 5 4 10 -3 6 -11 10 -16 10 -6 0
-7 -4 -4 -10z"/>
<path d="M415 100 c3 -5 11 -10 16 -10 6 0 7 5 4 10 -3 6 -11 10 -16 10 -6 0
-7 -4 -4 -10z"/>
<path d="M385 80 c3 -5 8 -10 11 -10 2 0 4 5 4 10 0 6 -5 10 -11 10 -5 0 -7
-4 -4 -10z"/>
<path d="M350 60 c0 -5 5 -10 11 -10 5 0 7 5 4 10 -3 6 -8 10 -11 10 -2 0 -4
-4 -4 -10z"/>
<path d="M315 40 c3 -5 11 -10 16 -10 6 0 7 5 4 10 -3 6 -11 10 -16 10 -6 0
-7 -4 -4 -10z"/>
</g>
</svg>
