<?xml version="1.0" encoding="UTF-8"?>
<svg width="247px" height="154px" viewBox="0 0 247 154" version="1.1" xmlns="http://www.w3.org/2000/svg" xmlns:xlink="http://www.w3.org/1999/xlink">
    <!-- Generator: sketchtool 64 (101010) - https://sketch.com -->
    <title>B435E1FD-A316-4083-BDE7-5E9E8E79CC70</title>
    <desc>Created with sketchtool.</desc>
    <defs>
        <linearGradient x1="50%" y1="0%" x2="50%" y2="100%" id="linearGradient-1">
            <stop stop-color="#98BDFC" offset="0%"></stop>
            <stop stop-color="#783AF9" offset="100%"></stop>
        </linearGradient>
        <linearGradient x1="50%" y1="0%" x2="50%" y2="100%" id="linearGradient-2">
            <stop stop-color="#98BDFC" offset="0%"></stop>
            <stop stop-color="#783AF9" offset="100%"></stop>
        </linearGradient>
    </defs>
    <g id="Desktop" stroke="none" stroke-width="1" fill="none" fill-rule="evenodd">
        <g id="Landing" transform="translate(-596.000000, -144.000000)">
            <g id="Logo" transform="translate(596.000000, 144.000000)">
                <g id="Group-25">
                    <path d="M22.4895272,36.5546795 L60.6689846,15.2147868 L60.6689846,4.32548439 C60.6689846,1.91745024 58.6922615,0.187767317 56.5318405,0.187767317 C55.8609117,0.187767317 55.1730781,0.354162439 54.5205567,0.718879512 L3.64266276,29.1562941 C1.50928936,30.3484795 0.187717325,32.6010112 0.187717325,35.0443527 L0.187717325,124.63066 C0.187717325,127.041323 2.1670701,128.768377 4.32598838,128.768377 C5.00856269,128.768377 5.70879301,128.595972 6.37033035,128.218109 L16.3414749,122.52086 L16.3414749,47.0330649 C16.3414749,42.689138 18.6972391,38.6742454 22.4895272,36.5546795 Z" id="Stroke-1" fill="url(#linearGradient-1)"></path>
                    <path d="M77.9446885,12.176179 C77.2741353,12.176179 76.5859261,12.3425741 75.9334046,12.7072912 L65.9284506,18.2997449 L63.2988303,19.7691302 L60.66921,21.2392668 L25.0555107,41.1447059 C22.922513,42.3368912 21.600941,44.5894229 21.600941,47.03314 L21.600941,119.515681 L21.600941,122.543847 L21.600941,125.572013 L21.600941,136.619447 C21.600941,139.029735 23.5799181,140.757164 25.7388364,140.757164 C26.4214107,140.757164 27.121641,140.58476 27.7831783,140.20652 L38.1303586,134.294423 L38.1303586,116.127681 L38.1303586,113.099516 L38.1303586,110.070974 L38.1303586,60.1881205 C38.1303586,55.8389351 40.4887524,51.8187839 44.2859241,49.6969644 L60.66921,40.5395985 L63.2988303,39.0698376 L65.9284506,37.6000766 L82.0822082,28.5711693 L82.0822082,16.3138961 C82.0822082,13.905862 80.1051094,12.176179 77.9446885,12.176179 Z" id="Stroke-3" fill="url(#linearGradient-2)"></path>
                    <path d="M99.7333468,25.3225205 C99.0627936,25.3225205 98.3745844,25.4889156 97.7220629,25.8540083 L87.3414489,31.6560522 L84.7118286,33.1258132 L82.0822082,34.5955741 L65.9284506,43.6244815 L63.2988303,45.0942424 L60.66921,46.5640034 L46.8520579,54.2869156 C44.7141766,55.4817302 43.3895992,57.7391449 43.3895992,60.1881205 L43.3895992,107.066096 L43.3895992,110.094262 L43.3895992,113.122428 L43.3895992,131.289545 L43.3895992,134.318086 L43.3895992,137.346252 L43.3895992,149.765789 C43.3895992,152.176077 45.3685764,153.903506 47.5278703,153.903506 C48.2100689,153.903506 48.9102993,153.731101 49.5722123,153.352862 L100.464006,124.274281 C102.570707,123.070452 103.870867,120.830316 103.870867,118.404252 L103.870867,29.4602376 C103.870867,27.0522034 101.893768,25.3225205 99.7333468,25.3225205 Z" id="Stroke-5" fill="url(#linearGradient-2)"></path>
                    <polygon id="Fill-7" fill="#241C1E" points="126.346344 65.114618 126.346344 68.4575449 119.216692 68.4575449 119.216692 72.2677302 124.723868 72.2677302 124.723868 75.4630424 119.216692 75.4630424 119.216692 82.4933302 115.013056 82.4933302 115.013056 65.114618"></polygon>
                    <path d="M138.872052,73.1771941 C138.322837,73.7669015 138.048605,74.5868576 138.048605,75.6351844 C138.048605,76.6838868 138.322837,77.5034673 138.872052,78.0935502 C139.420891,78.6836332 140.146291,78.9781112 141.047875,78.9781112 C141.932554,78.9781112 142.657954,78.6753698 143.223322,78.06876 C143.788691,77.4625259 144.071563,76.6515844 144.071563,75.6351844 C144.071563,74.6030088 143.788691,73.78756 143.223322,73.1895893 C142.657954,72.5916185 141.932554,72.2922576 141.047875,72.2922576 C140.146291,72.2922576 139.420891,72.5874868 138.872052,73.1771941 M142.399876,69.3181795 C143.15345,69.7937015 143.710929,70.4405015 144.071563,71.260082 L144.071563,68.7773015 L148.250781,68.7773015 L148.250781,82.4934429 L144.071563,82.4934429 L144.071563,80.0106624 C143.710929,80.8306185 143.15345,81.4774185 142.399876,81.9525649 C141.64555,82.4280868 140.744342,82.6654722 139.695499,82.6654722 C138.564762,82.6654722 137.552358,82.382638 136.659414,81.8173454 C135.765719,81.2524283 135.061357,80.4369795 134.5452,79.3713746 C134.029043,78.3068966 133.770589,77.060999 133.770589,75.6351844 C133.770589,74.1935941 134.029043,72.9435649 134.5452,71.886599 C135.061357,70.8300088 135.765719,70.0186917 136.659414,69.4530234 C137.552358,68.8877307 138.564762,68.6052722 139.695499,68.6052722 C140.744342,68.6052722 141.64555,68.8426576 142.399876,69.3181795" id="Fill-9" fill="#241C1E"></path>
                    <path d="M167.770565,70.0679717 C168.966667,71.0430546 169.720616,72.3828546 170.032414,74.0866205 L165.582345,74.0866205 C165.45124,73.4965376 165.180765,73.0382937 164.771295,72.7103863 C164.36145,72.3828546 163.845293,72.2187132 163.222449,72.2187132 C162.485028,72.2187132 161.878337,72.5098107 161.403127,73.0912546 C160.927917,73.6730741 160.6905,74.521201 160.6905,75.6352595 C160.6905,76.7496937 160.927917,77.5981961 161.403127,78.17964 C161.878337,78.7614595 162.485028,79.0521815 163.222449,79.0521815 C163.845293,79.0521815 164.36145,78.8884156 164.771295,78.5605083 C165.180765,78.2329766 165.45124,77.7739815 165.582345,77.1838985 L170.032414,77.1838985 C169.720616,78.8884156 168.966667,80.2282156 167.770565,81.2032985 C166.574088,82.1783815 165.090982,82.6655473 163.320872,82.6655473 C161.97676,82.6655473 160.784415,82.3827132 159.743837,81.8174205 C158.702883,81.2521278 157.887701,80.4370546 157.297539,79.3714498 C156.707752,78.3069717 156.412859,77.0610741 156.412859,75.6352595 C156.412859,74.1936693 156.703245,72.94364 157.285142,71.8866741 C157.867039,70.8300839 158.682597,70.0187668 159.73144,69.4530985 C160.780283,68.8878059 161.97676,68.6049717 163.320872,68.6049717 C165.090982,68.6049717 166.574088,69.0932644 167.770565,70.0679717" id="Fill-11" fill="#241C1E"></path>
                    <path d="M185.962729,78.8801146 L185.962729,82.4934805 L184.069778,82.4934805 C182.463456,82.4934805 181.213635,82.096461 180.320691,81.3012951 C179.427371,80.5068805 178.981087,79.1914951 178.981087,77.3558902 L178.981087,72.3170854 L177.136972,72.3170854 L177.136972,68.777339 L178.981087,68.777339 L178.981087,65.409622 L183.184723,65.409622 L183.184723,68.777339 L185.938311,68.777339 L185.938311,72.3170854 L183.184723,72.3170854 L183.184723,77.4298854 C183.184723,77.9707634 183.295543,78.3478756 183.516807,78.5604707 C183.73807,78.7734415 184.11035,78.8801146 184.635147,78.8801146 L185.962729,78.8801146 Z" id="Fill-13" fill="#241C1E"></path>
                    <path d="M198.684945,73.1155941 C198.13573,73.6977893 197.861498,74.5376527 197.861498,75.6351844 C197.861498,76.7334673 198.13573,77.569199 198.684945,78.1427551 C199.233784,78.7163112 199.909972,79.0032771 200.713134,79.0032771 C201.515919,79.0032771 202.188351,78.7163112 202.728925,78.1427551 C203.269876,77.569199 203.540351,76.7334673 203.540351,75.6351844 C203.540351,74.5376527 203.269876,73.6977893 202.728925,73.1155941 C202.188351,72.5345259 201.515919,72.2434283 200.713134,72.2434283 C199.909972,72.2434283 199.233784,72.5345259 198.684945,73.1155941 M204.363798,69.453399 C205.437059,70.0186917 206.281542,70.8341405 206.896122,71.8989941 C207.510702,72.9642234 207.817992,74.2097454 207.817992,75.6351844 C207.817992,77.060999 207.510702,78.3068966 206.896122,79.3713746 C206.281542,80.4369795 205.437059,81.2524283 204.363798,81.8173454 C203.290162,82.382638 202.073399,82.6654722 200.713134,82.6654722 C199.352493,82.6654722 198.131598,82.382638 197.050073,81.8173454 C195.968547,81.2524283 195.120307,80.4369795 194.505727,79.3713746 C193.890772,78.3068966 193.583482,77.060999 193.583482,75.6351844 C193.583482,74.2097454 193.890772,72.9642234 194.505727,71.8989941 C195.120307,70.8341405 195.968547,70.0186917 197.050073,69.453399 C198.131598,68.8877307 199.352493,68.6052722 200.713134,68.6052722 C202.073399,68.6052722 203.290162,68.8877307 204.363798,69.453399" id="Fill-15" fill="#241C1E"></path>
                    <path d="M222.211933,69.3671966 C223.039512,68.8755234 223.936588,68.6298746 224.903912,68.6298746 L224.903912,73.1281771 L223.699171,73.1281771 C222.584587,73.1281771 221.720194,73.365938 221.105614,73.8410844 C220.491034,74.3166063 220.183744,75.1192844 220.183744,76.2498698 L220.183744,82.4932551 L215.979732,82.4932551 L215.979732,68.7771137 L220.183744,68.7771137 L220.183744,71.3579283 C220.708165,70.5225722 221.383978,69.8588698 222.211933,69.3671966" id="Fill-17" fill="#241C1E"></path>
                    <polygon id="Fill-19" fill="#241C1E" points="235.819166 68.7771888 239.113705 77.1840863 242.186604 68.7771888 246.832767 68.7771888 238.277485 89.0319449 233.65574 89.0319449 236.876273 81.9772424 231.123415 68.7771888"></polygon>
                    <path d="M64.2355011,87.6552224 C62.7531465,88.5108615 61.4518601,89.64032 60.3316419,91.0405932 C59.211048,92.4408663 58.3485325,93.9932615 57.7407146,95.7019102 C57.1328966,97.4083054 56.8327442,99.1301005 56.8375692,100.865793 C56.8425114,102.601861 57.1516796,103.969457 57.7670108,104.972335 C58.3823419,105.974837 59.2512436,106.527735 60.3759698,106.631779 C61.5003203,106.736198 62.8038606,106.359086 64.2862152,105.503822 C66.2264993,104.383379 67.8316947,102.866291 69.102177,100.948803 C70.3722836,99.0313151 71.1904712,96.9748517 71.5589937,94.7745298 L67.6543832,97.0289395 C67.3685059,97.9886224 66.9267296,98.8728078 66.3331868,99.679242 C65.7373899,100.486803 65.0281438,101.128344 64.2103319,101.600486 C63.1310605,102.223622 62.2591536,102.276959 61.594611,101.757866 C60.9300683,101.239149 60.5957309,100.220496 60.591223,98.6992761 C60.5870907,97.1780566 60.9142906,95.7717737 61.5739497,94.4830566 C62.233233,93.1913346 63.1025104,92.234281 64.1817817,91.6111444 C64.9999693,91.1390029 65.7103424,90.9605883 66.3091445,91.0789054 C66.9049414,91.1983493 67.3504742,91.578842 67.6404837,92.2200078 L71.5450942,89.9659737 C71.1656776,88.184081 70.3384742,87.0719005 69.0616057,86.6331883 C67.7843615,86.1944761 66.1761609,86.5351541 64.2355011,87.6552224" id="Fill-21" fill="#FFFFFF"></path>
                    <polygon id="Fill-23" fill="#FFFFFF" points="90.3983449 72.7260493 86.4505335 75.0048737 82.753663 90.3492834 78.9842901 79.3149956 75.036103 81.5941956 80.372354 96.0686932 85.1402313 93.3158493"></polygon>
                </g>
            </g>
        </g>
    </g>
</svg>