<?xml version="1.0" encoding="UTF-8" standalone="no"?>
<svg version="1.1" xmlns="http://www.w3.org/2000/svg" xmlns:xlink="http://www.w3.org/1999/xlink" x="0px" y="0px" viewBox="0 0 205.2 205.5" style="enable-background:new 0 0 205.2 205.5;" xml:space="preserve">
  <g>
    <g>
      <g>
        <g>
          <g>
            <g>
              <path class="st0" fill="#00B4BB" d="M161.1,132.4H44.1c-2.8,0-5-2.2-5-5s2.2-5,5-5h116.9c2.8,0,5,2.2,5,5S163.8,132.4,161.1,132.4z"/>
            </g>
            <g>
              <path class="st0" fill="#00B4BB" d="M139.8,155.2H65.4c-2.8,0-5-2.2-5-5s2.2-5,5-5h74.5c2.8,0,5,2.2,5,5S142.6,155.2,139.8,155.2z"/>
            </g>
            <g>
              <path class="st0" fill="#00B4BB" d="M118.6,178.1h-32c-2.8,0-5-2.2-5-5s2.2-5,5-5h32c2.8,0,5,2.2,5,5S121.4,178.1,118.6,178.1z"/>
            </g>
          </g>
        </g>
      </g>
      <path class="st0" fill="#00B4BB" d="M202.8,102.5C202.8,102.4,202.8,102.4,202.8,102.5c-0.2-55.1-45.2-99.8-100.2-99.8S2.7,47.4,2.4,102.4
        c0,0,0,0.1,0,0.1c0,0.1,0,0.2,0,0.3c0,55.2,44.9,100.2,100.2,100.2S202.8,158,202.8,102.8C202.8,102.7,202.8,102.6,202.8,102.5z
         M102.6,12.6c47.8,0,87.2,37.6,90,84.8h-180C15.4,50.2,54.8,12.6,102.6,12.6z M102.6,192.9c-48.2,0-87.7-38-90.1-85.5h180.2
        C190.3,155,150.8,192.9,102.6,192.9z"/>
    </g>
  </g>
</svg>